# Blender v3.0.0 OBJ File: ''
# www.blender.org
mtllib chips.mtl
o Crisps
v 14.540207 106.431519 119.097267
v 32.310905 106.208817 117.707573
v 31.117207 84.687721 113.152969
v 12.685310 85.431519 118.274567
v 32.396404 63.156422 108.457962
v 14.673409 64.431519 119.116463
v 33.854702 42.141525 104.429558
v 15.068306 43.431522 117.814056
v 30.330803 21.268326 98.920746
v 15.481407 22.431522 119.005951
v 32.424805 0.330221 104.857147
v 14.416008 1.431521 121.356949
v 31.658306 -20.731684 101.471352
v 16.537407 -19.568478 116.669350
v 31.555004 -41.858486 108.336838
v 13.823204 -40.568478 122.261841
v 31.604801 -62.843578 110.196442
v 15.427910 -61.568478 118.723137
v 32.807903 -83.312279 112.634232
v 15.752510 -82.568481 120.795731
v 33.421604 -103.791183 117.111229
v 15.650909 -103.568481 121.448334
v 58.756805 103.501419 119.513672
v 58.420303 83.824120 111.690079
v 58.998100 62.791824 98.031960
v 60.354500 41.429924 99.129257
v 57.324104 20.435930 89.724747
v 59.746201 -0.486176 93.395645
v 58.736702 -21.564077 92.377747
v 56.794502 -42.570076 91.971138
v 58.647003 -63.208168 102.524635
v 58.986702 -84.175888 111.008430
v 59.867500 -106.498581 117.427826
v 89.540298 105.483917 118.558167
v 89.682999 83.561424 103.247864
v 90.005600 62.230721 98.230263
v 91.743698 40.775326 92.284561
v 88.897797 19.597630 89.766846
v 91.312202 -1.412177 85.854645
v 90.211899 -22.402380 91.705246
v 87.989304 -43.224678 90.024544
v 90.104599 -63.769371 99.788940
v 89.982300 -84.438576 109.411530
v 90.651001 -104.516083 120.795929
v 120.323799 104.979820 118.434868
v 120.483597 84.007217 106.002869
v 121.447502 64.074821 104.856857
v 123.079590 42.935127 91.431259
v 120.214600 21.506226 92.126549
v 122.691895 0.358323 90.517151
v 121.627296 -20.493780 92.838448
v 119.519600 -41.064873 96.151237
v 121.096298 -61.925179 103.467041
v 121.050102 -83.992775 109.691528
v 121.434502 -105.020180 116.907127
v 146.769699 105.451218 120.306572
v 146.196396 84.472221 115.531265
v 147.958099 62.983124 105.228363
v 149.761002 41.629524 98.871758
v 146.444000 20.464523 102.850548
v 148.606796 -0.582773 104.012947
v 147.771393 -21.535471 105.582153
v 147.461304 -42.370476 101.362541
v 147.166504 -63.016979 105.529442
v 147.887100 -83.527779 114.201431
v 147.880402 -104.548775 116.540932
v 164.540283 103.051514 117.211075
v 162.685303 82.051514 118.410080
v 164.673401 61.051521 122.643356
v 165.068298 40.051525 121.203156
v 165.481384 19.051525 120.452950
v 164.415985 -1.948475 116.308647
v 166.537384 -22.948483 121.167046
v 163.823181 -43.948483 121.399940
v 165.427887 -64.948479 116.904037
v 165.752502 -85.948486 118.237732
v 165.651001 -106.948486 120.267326
v 14.516708 106.454315 120.297272
v 12.706909 85.454315 119.474472
v 31.336304 83.885216 127.269768
v 32.287304 106.138519 118.907570
v 14.733109 64.454315 120.316460
v 33.509304 61.777519 132.621170
v 14.849007 43.454319 119.014061
v 31.973202 39.894714 135.768646
v 15.779907 22.454319 120.205948
v 32.700806 18.467920 134.565445
v 14.230309 1.454417 122.556946
v 30.679104 -2.641985 141.936951
v 16.665504 -19.545574 117.869347
v 33.833904 -23.532091 137.116043
v 13.834305 -40.545681 123.461838
v 31.144901 -44.105286 139.675949
v 15.518608 -61.545681 119.923141
v 31.566303 -64.222488 134.359528
v 15.780807 -82.545685 121.995728
v 32.349514 -81.570686 130.484482
v 15.643211 -103.545685 122.648331
v 33.413803 -103.861481 118.311234
v 58.684799 84.209518 133.556870
v 58.733200 103.525314 120.713669
v 61.102005 63.398418 135.972961
v 57.714806 42.108719 148.551758
v 58.748703 21.105413 146.036255
v 58.391304 0.175015 152.003448
v 59.036499 -20.894581 148.689255
v 57.867603 -41.891281 141.393753
v 58.188679 -63.398285 141.670624
v 58.864014 -81.246391 136.608780
v 59.859703 -106.474686 118.627831
v 89.946899 85.728821 127.698059
v 89.516701 105.669617 119.758171
v 92.455200 63.756516 140.763870
v 88.481400 42.080315 147.734955
v 90.086502 21.037014 152.967255
v 89.901299 -0.001285 151.638443
v 90.448700 -20.962988 154.905746
v 89.703598 -41.919674 145.474945
v 89.603676 -63.040188 143.527618
v 89.891808 -79.727089 137.595184
v 90.643204 -104.330383 121.995934
v 120.748199 84.030014 127.869675
v 120.300201 105.057114 119.634781
v 123.551300 62.856216 142.797867
v 120.439903 41.956818 140.853851
v 121.639297 20.888111 148.438049
v 121.336998 -0.180889 149.124954
v 121.927101 -21.111790 149.149948
v 120.592697 -42.043186 145.573853
v 120.637970 -63.940487 142.613022
v 120.927307 -81.425896 135.291885
v 121.426697 -104.942886 118.107132
v 146.415497 84.080719 129.647964
v 146.746094 105.386414 121.506577
v 149.070999 63.507019 129.391464
v 147.879501 43.082214 130.210846
v 148.813904 22.274918 138.495255
v 146.861206 1.295614 141.092743
v 149.947098 -19.725082 141.226852
v 147.051300 -40.917786 132.701645
v 147.128006 -62.492981 129.692535
v 147.428711 -81.375183 132.051682
v 147.872604 -104.613586 117.740929
v 162.706879 82.043015 119.610077
v 164.516693 103.043015 118.411072
v 164.733093 61.043022 123.843361
v 164.848999 40.043018 122.403061
v 165.779907 19.043018 121.652954
v 164.230286 -1.956982 117.508553
v 166.665497 -22.956982 122.367050
v 163.834290 -43.956982 122.599937
v 165.518585 -64.956985 118.104042
v 165.780792 -85.956985 119.437630
v 165.643188 -106.956985 121.467232
vt 0.835330 0.962022
vt 0.815478 0.968218
vt 0.822469 0.871253
vt 0.846194 0.867405
vt 0.814977 0.774241
vt 0.834550 0.772787
vt 0.806436 0.679556
vt 0.832237 0.678169
vt 0.827075 0.585510
vt 0.829818 0.583551
vt 0.814811 0.491171
vt 0.836058 0.488934
vt 0.819300 0.396275
vt 0.823633 0.394316
vt 0.819905 0.301085
vt 0.839529 0.299698
vt 0.819614 0.206535
vt 0.830131 0.205081
vt 0.812567 0.114311
vt 0.828230 0.110463
vt 0.804294 0.072438
vt 0.824145 0.066242
vt 0.660588 0.956020
vt 0.662559 0.867362
vt 0.659175 0.772598
vt 0.651230 0.676350
vt 0.668979 0.581760
vt 0.654793 0.487493
vt 0.660706 0.392524
vt 0.672081 0.297879
vt 0.661231 0.204892
vt 0.659241 0.110420
vt 0.649403 0.060240
vt 0.480293 0.964952
vt 0.479457 0.866178
vt 0.477568 0.770070
vt 0.467388 0.673401
vt 0.484056 0.577982
vt 0.469915 0.483321
vt 0.476359 0.388747
vt 0.489377 0.294930
vt 0.476988 0.202364
vt 0.477704 0.109236
vt 0.469108 0.069172
vt 0.299998 0.962681
vt 0.299062 0.868187
vt 0.293417 0.778379
vt 0.283858 0.683132
vt 0.300638 0.586582
vt 0.286128 0.491298
vt 0.292364 0.397346
vt 0.304708 0.304661
vt 0.295474 0.210673
vt 0.295744 0.111245
vt 0.288814 0.066901
vt 0.145108 0.964805
vt 0.148466 0.870282
vt 0.138148 0.773460
vt 0.127588 0.677249
vt 0.147015 0.581888
vt 0.134348 0.487058
vt 0.139241 0.392653
vt 0.141057 0.298779
vt 0.142784 0.205754
vt 0.138563 0.113340
vt 0.133923 0.069025
vt 0.097180 0.957592
vt 0.108045 0.862975
vt 0.096401 0.768357
vt 0.094088 0.673739
vt 0.091668 0.579122
vt 0.097908 0.484504
vt 0.085483 0.389886
vt 0.101380 0.295269
vt 0.091982 0.200651
vt 0.090081 0.106033
vt 0.085996 0.061812
vt 0.098852 0.974661
vt 0.094633 0.921812
vt 0.186224 0.914097
vt 0.186220 0.973108
vt 0.104595 0.818566
vt 0.196908 0.805405
vt 0.105165 0.715319
vt 0.189355 0.697819
vt 0.109741 0.612073
vt 0.192933 0.592474
vt 0.102123 0.508828
vt 0.182993 0.488688
vt 0.114095 0.405582
vt 0.198504 0.385982
vt 0.100176 0.302335
vt 0.185283 0.284834
vt 0.108457 0.199089
vt 0.187355 0.185929
vt 0.109746 0.095843
vt 0.195421 0.088129
vt 0.109070 0.053793
vt 0.196438 0.052241
vt 0.320683 0.915692
vt 0.316241 0.960260
vt 0.332567 0.813374
vt 0.315914 0.708704
vt 0.320997 0.605442
vt 0.319239 0.502538
vt 0.322412 0.398950
vt 0.316665 0.295720
vt 0.313090 0.193898
vt 0.325779 0.089723
vt 0.326458 0.039393
vt 0.474382 0.923161
vt 0.467587 0.970803
vt 0.486714 0.815135
vt 0.467177 0.708564
vt 0.475068 0.605105
vt 0.474158 0.501671
vt 0.476849 0.398613
vt 0.473186 0.295580
vt 0.467542 0.195658
vt 0.478326 0.097193
vt 0.477805 0.049935
vt 0.625816 0.914809
vt 0.618934 0.967791
vt 0.639597 0.810708
vt 0.624300 0.707957
vt 0.630197 0.604373
vt 0.628711 0.500788
vt 0.631612 0.397881
vt 0.625051 0.294973
vt 0.620121 0.191232
vt 0.630912 0.088841
vt 0.629152 0.046924
vt 0.752009 0.915058
vt 0.748955 0.969410
vt 0.765064 0.813908
vt 0.759206 0.713490
vt 0.763800 0.611191
vt 0.754200 0.508047
vt 0.769371 0.404699
vt 0.755135 0.300506
vt 0.755511 0.194432
vt 0.761205 0.089090
vt 0.759172 0.048543
vt 0.832105 0.905040
vt 0.836323 0.957889
vt 0.842067 0.801794
vt 0.842637 0.698548
vt 0.847213 0.595302
vt 0.839594 0.492056
vt 0.851567 0.388810
vt 0.837648 0.285564
vt 0.845929 0.182318
vt 0.847218 0.079072
vt 0.846541 0.037022
vt 0.000000 -0.000000
vt 0.100000 -0.000000
vt 0.100000 1.000000
vt 0.000000 1.000000
vt 0.094527 0.921699
vt 0.104301 0.818453
vt 0.833521 0.678272
vt 0.834201 0.772890
vt 0.300000 -0.000000
vt 0.400000 -0.000000
vt 0.400000 1.000000
vt 0.300000 1.000000
vt 0.837145 0.489037
vt 0.828070 0.583654
vt 0.822883 0.394419
vt 0.113466 0.405469
vt 0.100122 0.302223
vt 0.108011 0.198977
vt 0.800000 -0.000000
vt 0.900000 -0.000000
vt 0.900000 1.000000
vt 0.800000 1.000000
vt 1.000000 -0.000000
vt 1.000000 1.000000
vt 0.109107 0.053681
vt 0.196477 0.052586
vt 0.649449 0.060347
vt 0.804339 0.072121
vt 0.326497 0.039275
vt 0.477844 0.049022
vt 0.629190 0.046544
vt 0.133969 0.068733
vt 0.288859 0.067249
vt 0.086041 0.061774
vt 0.000000 -0.000000
vt 0.100000 -0.000000
vt 0.100000 1.000000
vt 0.000000 1.000000
vt 0.200000 -0.000000
vt 0.200000 1.000000
vt 0.101315 0.295230
vt 0.091451 0.200612
vt 0.084733 0.389848
vt 0.098996 0.484466
vt 0.089920 0.579084
vt 0.095372 0.673701
vt 0.843714 0.698590
vt 0.841773 0.801836
vt 0.107918 0.862937
vt 0.096051 0.768319
vt 0.097319 0.957554
vt 0.836439 0.957931
vt 0.749071 0.969729
vt 0.300136 0.963029
vt 0.145246 0.964513
vt 0.480431 0.965789
vt 0.660726 0.956128
vt 0.666700 -0.000000
vt 0.833300 -0.000000
vt 0.833300 1.000000
vt 0.666700 1.000000
vt 1.000000 -0.000000
vt 1.000000 1.000000
vn -0.1616 0.1437 -0.9763
vn -0.0290 0.2439 -0.9694
vn -0.1762 0.2215 -0.9591
vn -0.3263 0.0609 -0.9433
vn -0.3907 0.1115 -0.9137
vn -0.5320 -0.0067 -0.8467
vn -0.3772 0.2373 -0.8952
vn -0.6412 0.0751 -0.7637
vn -0.5607 -0.0173 -0.8278
vn -0.7706 -0.0948 -0.6303
vn -0.5601 -0.0460 -0.8271
vn -0.6820 0.0278 -0.7308
vn -0.5440 -0.0191 -0.8389
vn -0.6883 -0.0411 -0.7243
vn -0.5559 -0.1861 -0.8101
vn -0.5866 -0.0575 -0.8078
vn -0.3693 -0.1110 -0.9227
vn -0.4576 0.0084 -0.8891
vn -0.2481 -0.1734 -0.9531
vn -0.3900 -0.1105 -0.9142
vn -0.1669 -0.1672 -0.9717
vn -0.2373 -0.0290 -0.9710
vn -0.0325 0.4168 -0.9084
vn -0.0838 0.4131 -0.9068
vn -0.1719 0.2402 -0.9554
vn -0.1904 0.1779 -0.9654
vn -0.1841 0.1295 -0.9743
vn -0.2685 -0.1100 -0.9570
vn -0.1848 0.0622 -0.9808
vn -0.2751 -0.2387 -0.9313
vn -0.2103 -0.3858 -0.8983
vn -0.0631 -0.3235 -0.9441
vn 0.0433 -0.2617 -0.9642
vn -0.0113 0.5593 -0.8289
vn -0.0438 0.3669 -0.9292
vn 0.0213 0.3152 -0.9488
vn -0.0694 0.1500 -0.9862
vn 0.0101 0.1790 -0.9838
vn -0.0183 -0.0595 -0.9981
vn 0.0053 -0.0870 -0.9962
vn 0.0549 -0.1822 -0.9817
vn 0.0115 -0.4118 -0.9112
vn -0.0434 -0.4375 -0.8982
vn -0.0481 -0.4513 -0.8911
vn 0.1046 0.4481 -0.8878
vn 0.1410 0.3367 -0.9310
vn 0.1113 0.2867 -0.9515
vn 0.1731 0.2138 -0.9614
vn 0.2120 0.0248 -0.9770
vn 0.2996 0.0097 -0.9540
vn 0.2263 -0.1253 -0.9660
vn 0.1467 -0.2073 -0.9672
vn 0.1190 -0.3177 -0.9407
vn 0.0829 -0.2909 -0.9532
vn -0.0237 -0.3604 -0.9325
vn 0.0259 0.1475 -0.9887
vn 0.2900 0.2846 -0.9137
vn 0.4477 0.2903 -0.8458
vn 0.5264 0.0850 -0.8460
vn 0.5013 -0.0923 -0.8603
vn 0.5344 -0.0303 -0.8447
vn 0.5736 0.0021 -0.8191
vn 0.4954 -0.0150 -0.8685
vn 0.2693 -0.2638 -0.9262
vn 0.1577 -0.2407 -0.9577
vn 0.1431 -0.1554 -0.9774
vn -0.1768 -0.0405 -0.9834
vn 0.0936 -0.0547 -0.9941
vn 0.6402 0.1060 -0.7608
vn 0.8000 0.0881 -0.5935
vn 0.7264 0.0105 -0.6872
vn 0.6296 -0.0309 -0.7763
vn 0.6262 -0.0953 -0.7738
vn 0.7396 0.0946 -0.6664
vn 0.6004 -0.0084 -0.7997
vn 0.2729 -0.1529 -0.9498
vn 0.1979 -0.1024 -0.9749
vn -0.1341 0.1999 0.9706
vn -0.4231 0.0381 0.9053
vn -0.2433 0.2192 0.9449
vn -0.0209 0.3988 0.9168
vn -0.5858 0.0117 0.8104
vn -0.3607 0.2089 0.9090
vn -0.6912 -0.0371 0.7217
vn -0.5556 0.0100 0.8314
vn -0.6596 0.1023 0.7446
vn -0.5180 0.1540 0.8414
vn -0.7617 -0.0409 0.6466
vn -0.5651 0.0039 0.8250
vn -0.7343 -0.0217 0.6785
vn -0.5403 -0.0871 0.8369
vn -0.6699 0.0703 0.7391
vn -0.4340 -0.0065 0.9009
vn -0.6322 -0.1205 0.7654
vn -0.4890 -0.2288 0.8417
vn -0.2307 -0.0483 0.9718
vn -0.3410 -0.3269 0.8814
vn 0.1623 -0.0373 0.9860
vn -0.0654 -0.3642 0.9290
vn -0.0656 0.3447 0.9364
vn 0.0393 0.5205 0.8529
vn -0.1299 0.3006 0.9449
vn -0.2164 0.1988 0.9559
vn -0.2900 0.0425 0.9561
vn -0.2097 0.1004 0.9726
vn -0.2611 -0.2497 0.9325
vn -0.1441 -0.1206 0.9822
vn -0.1175 -0.1578 0.9805
vn -0.1167 -0.4228 0.8987
vn -0.0877 -0.5620 0.8225
vn 0.0487 0.4668 0.8830
vn 0.0083 0.3690 0.9294
vn -0.0095 0.3416 0.9398
vn 0.0696 0.3063 0.9494
vn -0.0081 0.0681 0.9976
vn 0.0251 0.0655 0.9975
vn 0.0032 -0.1327 0.9911
vn -0.0699 -0.2483 0.9662
vn -0.0242 -0.2095 0.9775
vn 0.0209 -0.4330 0.9011
vn 0.0371 -0.5428 0.8391
vn 0.0430 0.4267 0.9034
vn -0.0274 0.3628 0.9315
vn 0.2008 0.2379 0.9503
vn 0.2307 0.1637 0.9592
vn 0.2389 0.1800 0.9542
vn 0.1941 0.0126 0.9809
vn 0.2393 -0.0981 0.9660
vn 0.2461 -0.1830 0.9518
vn 0.1806 -0.2109 0.9607
vn 0.0591 -0.4637 0.8840
vn 0.0362 -0.5809 0.8132
vn 0.2035 0.2005 0.9583
vn 0.1420 0.2695 0.9525
vn 0.3386 0.0766 0.9378
vn 0.4495 0.1128 0.8861
vn 0.5530 0.1740 0.8148
vn 0.5582 0.0689 0.8269
vn 0.5140 -0.1113 0.8506
vn 0.4345 -0.2383 0.8686
vn 0.4896 -0.0217 0.8717
vn 0.3107 -0.2055 0.9280
vn -0.0529 -0.5301 0.8463
vn 0.4630 0.2052 0.8623
vn 0.1767 0.0409 0.9834
vn 0.3771 0.0203 0.9259
vn 0.3998 -0.0170 0.9164
vn 0.6488 -0.0379 0.7600
vn 0.7843 0.0725 0.6162
vn 0.7678 0.0420 0.6394
vn 0.5459 -0.1855 0.8170
vn 0.5625 0.0166 0.8266
vn 0.5296 0.0372 0.8474
vn 0.1451 -0.2907 0.9457
vn -0.9960 0.0867 -0.0199
vn -0.9998 -0.0050 0.0187
vn -0.9998 -0.0029 0.0174
vn -0.9960 0.0867 -0.0212
vn -0.9977 -0.0497 0.0464
vn -0.9974 -0.0512 0.0500
vn -0.9848 -0.0301 -0.1713
vn -0.9841 -0.0302 -0.1752
vn -0.9714 0.0433 0.2335
vn -0.9713 0.0474 0.2330
vn -0.9886 -0.0270 -0.1484
vn -0.9893 -0.0194 -0.1446
vn -0.9944 0.0176 0.1039
vn -0.9946 0.0187 0.1018
vn -0.9996 0.0257 0.0098
vn -0.9997 0.0227 0.0107
vn -0.9961 -0.0457 0.0752
vn -0.9960 -0.0481 0.0751
vn -0.9997 -0.0033 0.0231
vn -0.9997 -0.0025 0.0246
vn -1.0000 0.0046 -0.0066
vn -1.0000 0.0047 -0.0055
vn -0.0136 -0.9998 0.0162
vn -0.0651 -0.9962 -0.0576
vn -0.0595 -0.9966 -0.0573
vn -0.0131 -0.9997 0.0189
vn -0.0207 -0.9996 0.0215
vn -0.0146 -0.9997 0.0187
vn 0.0230 -0.9881 0.1520
vn 0.0237 -0.9882 0.1513
vn 0.0031 -0.9980 0.0626
vn 0.0021 -0.9979 0.0654
vn -0.0472 -0.9975 -0.0532
vn -0.0550 -0.9971 -0.0527
vn -0.1322 -0.9912 -0.0079
vn -0.1316 -0.9913 -0.0100
vn 1.0000 -0.0060 0.0054
vn 0.9997 0.0024 -0.0245
vn 0.9997 0.0015 -0.0230
vn 1.0000 -0.0059 0.0064
vn 0.9960 0.0510 -0.0737
vn 0.9958 0.0547 -0.0740
vn 0.9997 -0.0220 -0.0110
vn 0.9994 -0.0344 -0.0107
vn 0.9947 -0.0103 -0.1021
vn 0.9941 -0.0287 -0.1044
vn 0.9893 0.0163 0.1452
vn 0.9887 0.0167 0.1491
vn 0.9719 0.0227 -0.2342
vn 0.9719 0.0251 -0.2342
vn 0.9844 0.0038 0.1757
vn 0.9850 0.0034 0.1723
vn 0.9973 0.0557 -0.0487
vn 0.9977 0.0520 -0.0446
vn 0.9998 -0.0062 -0.0171
vn 0.9998 0.0090 -0.0184
vn 0.9960 -0.0871 0.0189
vn 0.9961 -0.0869 0.0176
vn 0.1329 0.9911 0.0118
vn 0.0669 0.9963 0.0536
vn 0.0598 0.9967 0.0540
vn 0.1324 0.9912 0.0096
vn 0.0033 0.9979 -0.0654
vn 0.0030 0.9980 -0.0626
vn -0.0279 0.9880 -0.1518
vn -0.0298 0.9879 -0.1523
vn 0.0173 0.9997 -0.0185
vn 0.0173 0.9996 -0.0213
vn 0.0603 0.9965 0.0578
vn 0.0596 0.9965 0.0585
vn 0.0111 0.9998 -0.0188
vn 0.0116 0.9998 -0.0153
usemtl Material.007
s 1
f 1/1/1 2/2/2 3/3/3 4/4/4
f 4/4/4 3/3/3 5/5/5 6/6/6
f 6/6/6 5/5/5 7/7/7 8/8/8
f 8/8/8 7/7/7 9/9/9 10/10/10
f 10/10/10 9/9/9 11/11/11 12/12/12
f 12/12/12 11/11/11 13/13/13 14/14/14
f 14/14/14 13/13/13 15/15/15 16/16/16
f 16/16/16 15/15/15 17/17/17 18/18/18
f 18/18/18 17/17/17 19/19/19 20/20/20
f 20/20/20 19/19/19 21/21/21 22/22/22
f 2/2/2 23/23/23 24/24/24 3/3/3
f 3/3/3 24/24/24 25/25/25 5/5/5
f 5/5/5 25/25/25 26/26/26 7/7/7
f 7/7/7 26/26/26 27/27/27 9/9/9
f 9/9/9 27/27/27 28/28/28 11/11/11
f 11/11/11 28/28/28 29/29/29 13/13/13
f 13/13/13 29/29/29 30/30/30 15/15/15
f 15/15/15 30/30/30 31/31/31 17/17/17
f 17/17/17 31/31/31 32/32/32 19/19/19
f 19/19/19 32/32/32 33/33/33 21/21/21
f 23/23/23 34/34/34 35/35/35 24/24/24
f 24/24/24 35/35/35 36/36/36 25/25/25
f 25/25/25 36/36/36 37/37/37 26/26/26
f 26/26/26 37/37/37 38/38/38 27/27/27
f 27/27/27 38/38/38 39/39/39 28/28/28
f 28/28/28 39/39/39 40/40/40 29/29/29
f 29/29/29 40/40/40 41/41/41 30/30/30
f 30/30/30 41/41/41 42/42/42 31/31/31
f 31/31/31 42/42/42 43/43/43 32/32/32
f 32/32/32 43/43/43 44/44/44 33/33/33
f 34/34/34 45/45/45 46/46/46 35/35/35
f 35/35/35 46/46/46 47/47/47 36/36/36
f 36/36/36 47/47/47 48/48/48 37/37/37
f 37/37/37 48/48/48 49/49/49 38/38/38
f 38/38/38 49/49/49 50/50/50 39/39/39
f 39/39/39 50/50/50 51/51/51 40/40/40
f 40/40/40 51/51/51 52/52/52 41/41/41
f 41/41/41 52/52/52 53/53/53 42/42/42
f 42/42/42 53/53/53 54/54/54 43/43/43
f 43/43/43 54/54/54 55/55/55 44/44/44
f 45/45/45 56/56/56 57/57/57 46/46/46
f 46/46/46 57/57/57 58/58/58 47/47/47
f 47/47/47 58/58/58 59/59/59 48/48/48
f 48/48/48 59/59/59 60/60/60 49/49/49
f 49/49/49 60/60/60 61/61/61 50/50/50
f 50/50/50 61/61/61 62/62/62 51/51/51
f 51/51/51 62/62/62 63/63/63 52/52/52
f 52/52/52 63/63/63 64/64/64 53/53/53
f 53/53/53 64/64/64 65/65/65 54/54/54
f 54/54/54 65/65/65 66/66/66 55/55/55
f 56/56/56 67/67/67 68/68/68 57/57/57
f 57/57/57 68/68/68 69/69/69 58/58/58
f 58/58/58 69/69/69 70/70/70 59/59/59
f 59/59/59 70/70/70 71/71/71 60/60/60
f 60/60/60 71/71/71 72/72/72 61/61/61
f 61/61/61 72/72/72 73/73/73 62/62/62
f 62/62/62 73/73/73 74/74/74 63/63/63
f 63/63/63 74/74/74 75/75/75 64/64/64
f 64/64/64 75/75/75 76/76/76 65/65/65
f 65/65/65 76/76/76 77/77/77 66/66/66
f 78/78/78 79/79/79 80/80/80 81/81/81
f 79/79/79 82/82/82 83/83/83 80/80/80
f 82/82/82 84/84/84 85/85/85 83/83/83
f 84/84/84 86/86/86 87/87/87 85/85/85
f 86/86/86 88/88/88 89/89/89 87/87/87
f 88/88/88 90/90/90 91/91/91 89/89/89
f 90/90/90 92/92/92 93/93/93 91/91/91
f 92/92/92 94/94/94 95/95/95 93/93/93
f 94/94/94 96/96/96 97/97/97 95/95/95
f 96/96/96 98/98/98 99/99/99 97/97/97
f 81/81/81 80/80/80 100/100/100 101/101/101
f 80/80/80 83/83/83 102/102/102 100/100/100
f 83/83/83 85/85/85 103/103/103 102/102/102
f 85/85/85 87/87/87 104/104/104 103/103/103
f 87/87/87 89/89/89 105/105/105 104/104/104
f 89/89/89 91/91/91 106/106/106 105/105/105
f 91/91/91 93/93/93 107/107/107 106/106/106
f 93/93/93 95/95/95 108/108/108 107/107/107
f 95/95/95 97/97/97 109/109/109 108/108/108
f 97/97/97 99/99/99 110/110/110 109/109/109
f 101/101/101 100/100/100 111/111/111 112/112/112
f 100/100/100 102/102/102 113/113/113 111/111/111
f 102/102/102 103/103/103 114/114/114 113/113/113
f 103/103/103 104/104/104 115/115/115 114/114/114
f 104/104/104 105/105/105 116/116/116 115/115/115
f 105/105/105 106/106/106 117/117/117 116/116/116
f 106/106/106 107/107/107 118/118/118 117/117/117
f 107/107/107 108/108/108 119/119/119 118/118/118
f 108/108/108 109/109/109 120/120/120 119/119/119
f 109/109/109 110/110/110 121/121/121 120/120/120
f 112/112/112 111/111/111 122/122/122 123/123/123
f 111/111/111 113/113/113 124/124/124 122/122/122
f 113/113/113 114/114/114 125/125/125 124/124/124
f 114/114/114 115/115/115 126/126/126 125/125/125
f 115/115/115 116/116/116 127/127/127 126/126/126
f 116/116/116 117/117/117 128/128/128 127/127/127
f 117/117/117 118/118/118 129/129/129 128/128/128
f 118/118/118 119/119/119 130/130/130 129/129/129
f 119/119/119 120/120/120 131/131/131 130/130/130
f 120/120/120 121/121/121 132/132/132 131/131/131
f 123/123/123 122/122/122 133/133/133 134/134/134
f 122/122/122 124/124/124 135/135/135 133/133/133
f 124/124/124 125/125/125 136/136/136 135/135/135
f 125/125/125 126/126/126 137/137/137 136/136/136
f 126/126/126 127/127/127 138/138/138 137/137/137
f 127/127/127 128/128/128 139/139/139 138/138/138
f 128/128/128 129/129/129 140/140/140 139/139/139
f 129/129/129 130/130/130 141/141/141 140/140/140
f 130/130/130 131/131/131 142/142/142 141/141/141
f 131/131/131 132/132/132 143/143/143 142/142/142
f 134/134/134 133/133/133 144/144/144 145/145/145
f 133/133/133 135/135/135 146/146/146 144/144/144
f 135/135/135 136/136/136 147/147/147 146/146/146
f 136/136/136 137/137/137 148/148/148 147/147/147
f 137/137/137 138/138/138 149/149/149 148/148/148
f 138/138/138 139/139/139 150/150/150 149/149/149
f 139/139/139 140/140/140 151/151/151 150/150/150
f 140/140/140 141/141/141 152/152/152 151/151/151
f 141/141/141 142/142/142 153/153/153 152/152/152
f 142/142/142 143/143/143 154/154/154 153/153/153
f 1/155/155 4/156/156 79/157/157 78/158/158
f 4/159/156 6/160/159 82/82/160 79/79/157
f 6/6/159 8/8/161 84/161/162 82/162/160
f 8/163/161 10/164/163 86/165/164 84/166/162
f 10/10/163 12/12/165 88/167/166 86/168/164
f 12/12/165 14/14/167 90/169/168 88/167/166
f 14/170/167 16/171/169 92/92/170 90/90/168
f 16/171/169 18/172/171 94/94/172 92/92/170
f 18/173/171 20/174/173 96/175/174 94/176/172
f 20/174/173 22/177/175 98/178/176 96/175/174
f 22/179/177 21/180/178 99/99/179 98/98/180
f 21/21/178 33/33/181 110/181/182 99/182/179
f 33/183/181 44/184/183 121/121/184 110/110/182
f 44/184/183 55/185/185 132/132/186 121/121/184
f 55/55/185 66/66/187 143/186/188 132/187/186
f 66/66/187 77/77/189 154/188/190 143/186/188
f 77/189/191 76/190/192 153/191/193 154/192/194
f 76/190/192 75/193/195 152/194/196 153/191/193
f 75/75/195 74/74/197 151/195/198 152/196/196
f 74/74/197 73/73/199 150/197/200 151/195/198
f 73/73/199 72/72/201 149/198/202 150/197/200
f 72/72/201 71/71/203 148/199/204 149/198/202
f 71/71/203 70/70/205 147/200/206 148/199/204
f 70/201/205 69/202/207 146/146/208 147/147/206
f 69/69/207 68/68/209 144/203/210 146/204/208
f 68/68/209 67/67/211 145/205/212 144/203/210
f 67/206/213 56/207/214 134/134/215 145/145/216
f 56/56/214 45/45/217 123/208/218 134/209/215
f 45/45/217 34/34/219 112/210/220 123/208/218
f 34/34/219 23/23/221 101/211/222 112/210/220
f 23/212/221 2/213/223 81/214/224 101/215/222
f 2/213/223 1/216/225 78/217/226 81/214/224
