# Blender v3.0.0 OBJ File: ''
# www.blender.org
mtllib cornflakes.mtl
o Cube_Cube.004
v -2.136818 1.490624 0.365652
v -2.136818 4.696601 0.365652
v -2.136818 1.490624 -0.365652
v -2.136818 4.696601 -0.365652
v 0.114071 1.490624 0.365652
v 0.114071 4.696601 0.365652
v 0.114071 1.490624 -0.365652
v 0.114071 4.696601 -0.365652
vt 0.624960 0.150081
vt 0.623421 0.678939
vt 0.502237 0.677508
vt 0.503188 0.154585
vt 0.979118 0.148218
vt 0.977174 0.670266
vt 0.614740 0.670871
vt 0.609980 0.146573
vt 0.149140 0.156287
vt 0.149140 0.686966
vt 0.028089 0.686966
vt 0.028089 0.156287
vt 0.510147 0.153345
vt 0.510147 0.685826
vt 0.136296 0.685826
vt 0.136296 0.153345
vt 0.136296 0.153345
vt 0.510147 0.153345
vt 0.488779 0.032753
vt 0.154700 0.032753
vt 0.154700 0.141294
vt 0.488779 0.141294
vn -1.0000 0.0000 0.0000
vn 0.0000 0.0000 -1.0000
vn 1.0000 0.0000 0.0000
vn 0.0000 0.0000 1.0000
vn 0.0000 -1.0000 0.0000
vn 0.0000 1.0000 0.0000
usemtl Material.008
s off
f 1/1/1 2/2/1 4/3/1 3/4/1
f 3/5/2 4/6/2 8/7/2 7/8/2
f 7/9/3 8/10/3 6/11/3 5/12/3
f 5/13/4 6/14/4 2/15/4 1/16/4
f 3/17/5 7/18/5 5/13/5 1/16/5
f 8/19/6 4/20/6 2/21/6 6/22/6
