# Blender v3.0.0 OBJ File: ''
# www.blender.org
mtllib istee.mtl
o Cube_Cube.003
v -1.259788 -2.407224 0.686184
v -1.118160 2.029217 0.544555
v -1.259788 -2.407224 -0.686184
v -1.118160 2.029217 -0.544555
v 0.853902 -2.407224 0.686184
v 0.712273 2.029217 0.544555
v 0.853902 -2.407224 -0.686184
v 0.712273 2.029217 -0.544555
v -1.259788 2.029217 0.686184
v -1.259788 2.029217 -0.686184
v 0.853902 2.029217 -0.686184
v 0.853902 2.029217 0.686184
v 0.142409 2.243505 -0.318189
v 0.199471 2.243505 -0.437500
v 0.336863 2.243505 -0.495627
v 0.476445 2.243505 -0.463416
v 0.553570 2.243505 -0.406858
v 0.569129 2.243505 -0.303131
v 0.542861 2.243505 -0.203314
v 0.447615 2.243505 -0.123942
v 0.315769 2.243505 -0.097573
v 0.189679 2.243505 -0.176379
v 0.124432 2.012048 -0.319308
v 0.187135 2.012048 -0.450415
v 0.335343 2.012048 -0.513118
v 0.483550 2.012048 -0.478916
v 0.569055 2.012048 -0.416213
v 0.586156 2.012048 -0.302207
v 0.557654 2.012048 -0.193901
v 0.455049 2.012048 -0.108397
v 0.312541 2.012048 -0.079895
v 0.175734 2.012048 -0.165400
vt 0.829379 0.230263
vt 0.829379 0.546551
vt 0.637535 0.546551
vt 0.637535 0.230263
vt 0.030026 0.148613
vt 0.008475 0.920268
vt 0.731871 0.946281
vt 0.779939 0.165747
vt 0.777055 0.339214
vt 0.777055 0.552792
vt 0.647509 0.552792
vt 0.647509 0.339214
vt 0.814924 0.017823
vt 0.818844 0.897048
vt 0.045350 0.899547
vt 0.022153 0.015679
vt 0.821983 0.050221
vt 0.022153 0.030079
vt 0.754355 0.514280
vt 0.740702 0.500850
vt 0.737617 0.494863
vt 0.726510 0.490112
vt 0.711084 0.488495
vt 0.696275 0.493173
vt 0.690722 0.501653
vt 0.556214 0.513722
vt 0.556214 0.453605
vt 0.754354 0.454163
vt 0.540883 0.521496
vt 0.540883 0.445745
vt 0.769686 0.522140
vt 0.769685 0.446388
vt 0.697509 0.508909
vt 0.713552 0.512415
vt 0.729596 0.510573
vt 0.738851 0.507138
vt 0.684559 0.987334
vt 0.668110 0.987437
vt 0.640452 0.987483
vt 0.615267 0.987351
vt 0.606666 0.987105
vt 0.619076 0.986818
vt 0.646154 0.986669
vt 0.671808 0.986743
vt 0.688415 0.986921
vt 0.690611 0.987129
vt 0.612038 0.941145
vt 0.602603 0.940220
vt 0.639001 0.941628
vt 0.668123 0.941462
vt 0.686219 0.941076
vt 0.692846 0.940303
vt 0.690503 0.939531
vt 0.672727 0.938872
vt 0.645139 0.938600
vt 0.615932 0.939156
vn -1.0000 0.0000 0.0000
vn 0.0000 0.0000 -1.0000
vn 1.0000 0.0000 0.0000
vn 0.0000 0.0000 1.0000
vn 0.0000 -1.0000 0.0000
vn 0.0001 0.9999 -0.0119
vn 0.0000 1.0000 0.0000
vn -0.0008 0.9949 0.1013
vn -0.8998 0.0720 -0.4303
vn -0.3886 0.0720 -0.9186
vn 0.2243 0.0720 -0.9719
vn 0.5898 0.0720 -0.8043
vn 0.9864 0.0720 -0.1480
vn 0.9646 0.0720 0.2538
vn 0.6385 0.0720 0.7662
vn 0.1956 0.0720 0.9780
vn -0.5286 0.0720 0.8458
vn -0.9462 0.0720 0.3154
usemtl Material.004
s off
f 1/1/1 9/2/1 10/3/1 3/4/1
f 3/5/2 10/6/2 11/7/2 7/8/2
f 7/9/3 11/10/3 12/11/3 5/12/3
f 5/13/4 12/14/4 9/15/4 1/16/4
f 3/5/5 7/8/5 5/17/5 1/18/5
f 8/19/6 28/20/6 29/21/6 30/22/6 31/23/6 32/24/6 23/25/6 4/26/6 2/27/6 6/28/6
f 2/27/7 4/26/7 10/29/7 9/30/7
f 4/26/7 8/19/7 11/31/7 10/29/7
f 8/19/7 6/28/7 12/32/7 11/31/7
f 6/28/7 2/27/7 9/30/7 12/32/7
f 4/26/8 23/25/8 24/33/8 25/34/8 26/35/8 27/36/8 28/20/8 8/19/8
f 17/37/7 16/38/7 15/39/7 14/40/7 13/41/7 22/42/7 21/43/7 20/44/7 19/45/7 18/46/7
f 13/41/9 14/40/9 24/47/9 23/48/9
f 14/40/10 15/39/10 25/49/10 24/47/10
f 15/39/11 16/38/11 26/50/11 25/49/11
f 16/38/12 17/37/12 27/51/12 26/50/12
f 17/37/13 18/46/13 28/52/13 27/51/13
f 18/46/14 19/45/14 29/53/14 28/52/14
f 19/45/15 20/44/15 30/54/15 29/53/15
f 20/44/16 21/43/16 31/55/16 30/54/16
f 21/43/17 22/42/17 32/56/17 31/55/17
f 22/42/18 13/41/18 23/48/18 32/56/18
