# Blender v3.0.0 OBJ File: ''
# www.blender.org
mtllib kaugummi.mtl
o Cube_Cube.002
v -1.358430 -2.503977 0.219262
v -1.358430 -1.780201 0.145578
v -1.358430 -2.503977 -0.145578
v -1.362049 -1.804651 -0.083378
v 1.358430 -2.503977 0.219262
v 1.358430 -1.780201 0.145578
v 1.358430 -2.503977 -0.145578
v 1.358430 -1.780201 -0.145578
v -1.294340 -1.501700 0.138710
v -1.297960 -1.526149 -0.076510
v 1.294340 -1.501700 0.138710
v 1.290721 -1.526149 -0.076510
v -1.243536 -1.121925 0.114766
v -1.243704 -1.121925 -0.138710
v 1.345144 -1.121925 0.114766
v 1.344977 -1.121925 -0.138710
v -1.142430 -0.514285 0.213104
v -1.142430 -0.514285 -0.138710
v 1.344977 -0.615558 0.213104
v 1.344977 -0.615558 -0.138710
v -1.272632 1.783193 0.074398
v -1.272632 1.783193 -0.074398
v 1.316049 1.783193 0.074398
v 1.316049 1.783193 -0.074398
v -1.272632 1.854417 0.074398
v -1.272632 1.854417 -0.074398
v 1.316049 1.854417 0.074398
v 1.316049 1.854417 -0.074398
v -1.167943 1.864592 0.068381
v -1.167943 1.864592 -0.068381
v 1.211360 1.864592 0.068381
v 1.211360 1.864592 -0.068381
v -1.167943 1.966341 0.068381
v -1.167943 1.966341 -0.068381
v 1.211360 1.966341 0.019203
v 1.211360 1.966341 -0.019203
v -1.339010 1.976515 0.076459
v -1.339010 1.976515 -0.076459
v 1.321379 1.976516 0.021471
v 1.321379 1.976516 -0.021471
v -1.339010 2.495433 0.040031
v -1.339010 2.495433 -0.040031
v 1.321379 2.495434 0.040031
v 1.321379 2.495434 -0.040031
v -0.548324 2.268703 0.055948
v -0.528814 2.198467 0.060878
v -0.480040 2.178957 0.062248
v 0.362783 2.198467 0.049223
v 0.417411 2.229683 0.049210
v 0.417411 2.288212 0.051304
v 0.378391 2.321379 0.052250
v 0.036970 2.325281 0.051976
v 0.025264 2.372104 0.048689
v -0.009854 2.405271 0.046361
v -0.064481 2.416977 0.045539
v -0.123010 2.401369 0.046635
v -0.171785 2.325281 0.051976
v -0.284942 2.321379 0.052250
v -0.476138 2.319427 0.052387
v -0.522961 2.296016 0.054030
vt 0.243866 0.016315
vt 0.243866 0.156434
vt 0.243165 0.151700
vt 0.243866 0.016315
vt 0.769834 0.156434
vt 0.769834 0.016315
vt 0.769834 0.156434
vt 0.769834 0.016315
vt 0.756726 0.205617
vt 0.757427 0.210350
vt 0.256273 0.210350
vt 0.767262 0.283872
vt 0.266109 0.283872
vt 0.255572 0.205617
vt 0.767230 0.283872
vt 0.767230 0.381902
vt 0.767230 0.381902
vt 0.266076 0.283872
vt 0.761630 0.846287
vt 0.761630 0.846287
vt 0.285682 0.401508
vt 0.285682 0.401508
vt 0.260476 0.846287
vt 0.761630 0.860075
vt 0.260476 0.860075
vt 0.260476 0.846287
vt 0.761630 0.860075
vt 0.741363 0.862045
vt 0.741363 0.862045
vt 0.260476 0.860075
vt 0.280743 0.862045
vt 0.280743 0.862045
vt 0.280743 0.881743
vt 0.280743 0.881743
vt 0.741363 0.881743
vt 0.762661 0.883713
vt 0.247625 0.883713
vt 0.741363 0.881743
vt 0.762661 0.883713
vt 0.762661 0.984172
vt 0.762661 0.984172
vt 0.247625 0.883713
vt 0.247625 0.984172
vt 0.247625 0.984172
vt 0.586079 0.932538
vt 0.575600 0.926506
vt 0.412091 0.922689
vt 0.402851 0.926489
vt 0.399437 0.940129
vt 0.404442 0.945428
vt 0.413571 0.949968
vt 0.450388 0.950323
vt 0.472202 0.951067
vt 0.482226 0.965866
vt 0.493666 0.968901
vt 0.504112 0.966619
vt 0.510582 0.960160
vt 0.512396 0.951041
vt 0.578085 0.950238
vt 0.585747 0.943830
vn -0.5705 -0.5495 0.6103
vn -0.7322 0.1288 0.6688
vn -0.7353 0.1321 -0.6647
vn -0.5684 -0.5704 -0.5929
vn 0.6899 0.1406 -0.7101
vn 0.5814 -0.5626 -0.5877
vn 0.7342 0.1312 0.6661
vn 0.5722 -0.5497 0.6085
vn 0.6981 0.0511 -0.7141
vn 0.6594 0.0640 0.7490
vn -0.6798 0.1520 0.7174
vn 0.7468 -0.0882 0.6591
vn -0.7307 0.0799 0.6780
vn -0.7076 0.1362 -0.6933
vn 0.7018 -0.0960 -0.7059
vn 0.7054 0.0137 -0.7086
vn 0.6809 -0.0404 0.7313
vn -0.6910 0.0439 -0.7215
vn 0.7088 0.0140 -0.7052
vn 0.7124 0.0251 0.7013
vn -0.6570 -0.0110 0.7537
vn -0.6758 0.0473 -0.7356
vn -0.7199 -0.0006 0.6940
vn 0.6006 0.5469 0.5832
vn -0.6006 0.5469 0.5832
vn -0.7162 -0.0111 -0.6977
vn 0.6006 0.5469 -0.5832
vn 0.2315 0.6318 -0.7397
vn 0.2315 0.6318 0.7397
vn -0.6006 0.5469 -0.5832
vn -0.3004 0.6195 -0.7252
vn -0.3004 0.6195 0.7252
vn -0.3033 -0.4760 0.8255
vn -0.3033 -0.4760 -0.8255
vn 0.4125 -0.4524 0.7906
vn 0.6133 -0.5395 0.5769
vn -0.5750 -0.5605 0.5960
vn 0.4125 -0.4524 -0.7906
vn 0.7409 -0.6705 -0.0390
vn 0.6989 0.7152 0.0000
vn 0.5681 0.5881 0.5756
vn -0.7163 -0.6972 -0.0267
vn -0.7223 0.6915 0.0000
vn -0.5875 0.5757 0.5687
vn 0.0109 0.0151 0.9998
vn 0.0120 0.0102 0.9998
vn 0.0107 0.0157 0.9998
vn 0.0095 0.0215 0.9997
usemtl Material.003
s 1
f 1/1/1 2/2/2 4/3/3 3/4/4
f 3/4/4 4/3/3 8/5/5 7/6/6
f 7/6/6 8/5/5 6/7/7 5/8/8
f 5/8/8 6/7/7 2/2/2 1/1/1
f 3/4/4 7/6/6 5/8/8 1/1/1
f 6/7/7 8/5/5 12/9/9 11/10/10
f 9/11/11 11/10/10 15/12/12 13/13/13
f 4/3/3 2/2/2 9/11/11 10/14/14
f 2/2/2 6/7/7 11/10/10 9/11/11
f 8/5/5 4/3/3 10/14/14 12/9/9
f 15/12/12 16/15/15 20/16/16 19/17/17
f 12/9/9 10/14/14 14/18/18 16/15/15
f 11/10/10 12/9/9 16/15/15 15/12/12
f 10/14/14 9/11/11 13/13/13 14/18/18
f 19/17/17 20/16/16 24/19/19 23/20/20
f 14/18/18 13/13/13 17/21/21 18/22/22
f 13/13/13 15/12/12 19/17/17 17/21/21
f 16/15/15 14/18/18 18/22/22 20/16/16
f 21/23/23 23/20/20 27/24/24 25/25/25
f 18/22/22 17/21/21 21/23/23 22/26/26
f 17/21/21 19/17/17 23/20/20 21/23/23
f 20/16/16 18/22/22 22/26/26 24/19/19
f 27/24/24 28/27/27 32/28/28 31/29/29
f 24/19/19 22/26/26 26/30/30 28/27/27
f 23/20/20 24/19/19 28/27/27 27/24/24
f 22/26/26 21/23/23 25/25/25 26/30/30
f 30/31/31 29/32/32 33/33/33 34/34/34
f 26/30/30 25/25/25 29/32/32 30/31/31
f 25/25/25 27/24/24 31/29/29 29/32/32
f 28/27/27 26/30/30 30/31/31 32/28/28
f 33/33/33 35/35/35 39/36/36 37/37/37
f 29/32/32 31/29/29 35/35/35 33/33/33
f 32/28/28 30/31/31 34/34/34 36/38/38
f 31/29/29 32/28/28 36/38/38 35/35/35
f 39/36/36 40/39/39 44/40/40 43/41/41
f 36/38/38 34/34/34 38/42/42 40/39/39
f 35/35/35 36/38/38 40/39/39 39/36/36
f 34/34/34 33/33/33 37/37/37 38/42/42
f 44/40/40 42/43/43 41/44/44 43/41/41
f 38/42/42 37/37/37 41/44/44 42/43/43
f 37/37/37 39/36/36 49/45/45 48/46/46 47/47/46 46/48/46 45/49/47 41/44/44
f 41/44/44 45/49/47 60/50/48 59/51/48 58/52/48 57/53/48 56/54/48 55/55/48 54/56/48 53/57/48 52/58/48 51/59/48 50/60/48 49/45/45 39/36/36 43/41/41
