# Blender v3.0.0 OBJ File: ''
# www.blender.org
mtllib MILCH.mtl
o CartonOfMilk
v -0.203400 3.097687 -0.299687
v -0.203400 3.217865 -0.299687
v -0.276260 3.217865 -0.272055
v -0.276260 3.097687 -0.272055
v -0.151728 3.097687 -0.509331
v -0.151728 3.217865 -0.509330
v -0.133080 3.217865 -0.433672
v -0.133080 3.097687 -0.433672
v -0.203400 3.217865 -0.567657
v -0.295883 3.217865 -0.433672
v -0.203400 3.097687 -0.567657
v -0.151728 3.217865 -0.358013
v -0.276260 3.097687 -0.595288
v -0.276260 3.217865 -0.595288
v -0.353614 3.217865 -0.585896
v -0.353614 3.097687 -0.585896
v -0.151728 3.097687 -0.358013
v -0.417744 3.097687 -0.541631
v -0.417744 3.217865 -0.541631
v -0.453956 3.217865 -0.472633
v -0.453956 3.097687 -0.472633
v -0.453956 3.097687 -0.394710
v -0.453956 3.217865 -0.394710
v -0.417744 3.217865 -0.325713
v -0.417744 3.097687 -0.325713
v -0.353614 3.097687 -0.281448
v -0.353614 3.217865 -0.281448
v 0.469329 3.097687 -0.644129
v 0.166612 2.734881 -0.715321
v 0.020826 2.734881 -0.715321
v 0.494360 0.000000 -0.626580
v 0.494360 3.072656 -0.626579
v 0.494360 3.072656 0.626580
v 0.494360 -0.000000 0.626580
v 0.000000 3.128743 -0.639387
v 0.000000 3.119198 -0.663337
v -0.034273 3.097687 -0.653523
v -0.494360 -0.000000 0.626580
v -0.494360 3.072656 0.626580
v -0.494360 3.072656 -0.626579
v -0.494360 0.000000 -0.626580
v -0.016837 2.760329 0.663681
v 0.000000 2.760329 0.663681
v 0.000000 3.128743 0.675885
v -0.034273 3.097687 0.653524
v 0.469329 3.097687 0.644130
v -0.469329 3.097687 -0.644129
v -0.469329 3.097687 0.644130
v -0.175498 2.725996 -0.699466
v 0.175498 2.725996 -0.699466
v -0.166612 2.734881 -0.715321
v 0.034273 3.097687 -0.653523
v 0.034273 3.097687 0.653524
v 0.141881 2.752665 0.649516
v -0.141881 2.752665 0.649516
v 0.134697 2.760329 0.663681
v 0.016837 2.760329 0.663681
v -0.134697 2.760329 0.663681
v 0.000000 3.089751 -0.679789
v -0.020826 2.734881 -0.715321
v 0.000000 2.734881 -0.715321
vt 0.501266 0.037174
vt 0.501296 0.062528
vt 0.484856 0.062548
vt 0.484826 0.037193
vt 0.550585 0.037115
vt 0.550615 0.062469
vt 0.534175 0.062489
vt 0.534145 0.037134
vt 0.843327 0.302423
vt 0.832425 0.314729
vt 0.812914 0.286461
vt 0.847261 0.286461
vt 0.353307 0.037350
vt 0.353338 0.062705
vt 0.336898 0.062725
vt 0.336868 0.037370
vt 0.832425 0.258194
vt 0.843327 0.270499
vt 0.817054 0.252364
vt 0.369747 0.037331
vt 0.369778 0.062685
vt 0.817054 0.320558
vt 0.800734 0.318577
vt 0.386187 0.037311
vt 0.386217 0.062666
vt 0.517705 0.037154
vt 0.517736 0.062509
vt 0.402627 0.037291
vt 0.402657 0.062646
vt 0.787204 0.309238
vt 0.779564 0.294681
vt 0.419067 0.037272
vt 0.419097 0.062627
vt 0.435506 0.037252
vt 0.435537 0.062607
vt 0.779564 0.278241
vt 0.787204 0.263684
vt 0.451946 0.037233
vt 0.451977 0.062587
vt 0.468386 0.037213
vt 0.468416 0.062568
vt 0.800734 0.254346
vt 0.531415 0.665023
vt 0.596536 0.587707
vt 0.627325 0.587859
vt 0.944500 0.009811
vt 0.944499 0.912171
vt 0.010831 0.912171
vt 0.010832 0.009811
vt 0.122065 0.332626
vt 0.122244 0.337905
vt 0.112729 0.336417
vt 0.892046 0.005389
vt 0.892047 0.936596
vt -0.071469 0.936596
vt -0.071469 0.005389
vt 0.667580 0.524181
vt 0.676030 0.524368
vt 0.675515 0.709340
vt 0.655275 0.693334
vt 0.545447 0.070905
vt 0.548787 0.335270
vt 0.340208 0.337905
vt 0.336868 0.073541
vt 0.691464 0.003084
vt 0.691464 0.838107
vt 0.009789 0.838107
vt 0.009789 0.003084
vt -0.018231 0.821338
vt -0.018231 0.041847
vt 0.618111 0.041847
vt 0.618111 0.821338
vt 0.230701 0.326870
vt 0.223353 0.330815
vt 0.214530 0.059035
vt 0.222124 0.062488
vt 0.020726 0.337850
vt 0.013120 0.334407
vt 0.004090 0.069811
vt 0.011438 0.065851
vt 0.562788 0.154690
vt 0.630060 0.079954
vt 0.704112 0.079954
vt 0.771384 0.154690
vt 0.765037 0.332040
vt 0.698984 0.255493
vt 0.701730 0.252364
vt 0.771384 0.326461
vt 0.131634 0.335776
vt 0.122681 0.060040
vt 0.556967 0.327742
vt 0.625719 0.252832
vt 0.628500 0.255928
vt 0.563379 0.333244
vt 0.562788 0.071774
vt 0.637152 0.004090
vt 0.697019 0.004090
vt 0.771384 0.071774
vt 0.765415 0.236112
vt 0.693507 0.166014
vt 0.695653 0.163048
vt 0.771384 0.230207
vt 0.695843 0.693443
vt 0.684479 0.524251
vt 0.914180 0.690177
vt 0.558442 0.229618
vt 0.634550 0.162870
vt 0.636682 0.165848
vt 0.564379 0.235556
vt 0.672845 0.333868
vt 0.664228 0.337905
vt 0.664187 0.330951
vt 0.668658 0.166218
vt 0.658003 0.489598
vt 0.682852 0.489394
vt 0.754760 0.559491
vt 0.650884 0.489568
vt 0.553724 0.558936
vt 0.626027 0.489228
vt 0.733073 0.663819
vt 0.640880 0.665647
vt 0.636225 0.587789
vt 0.112759 0.055662
vt 0.436923 0.688858
vt 0.623601 0.665750
vt 0.667020 0.587272
vt 0.632223 0.662730
vt 0.631774 0.587820
vt 0.103153 0.060703
vt 0.665098 0.166203
vt 0.661539 0.166189
vt 0.593754 0.584611
vt 0.669766 0.584143
vt 0.029377 0.270084
vt 0.022234 0.284909
vt 0.022631 0.301452
vt 0.086844 0.306870
vt 0.090233 0.290764
vt 0.061174 0.325989
vt 0.076367 0.319580
vt 0.030830 0.315763
vt 0.044742 0.324619
vt 0.655566 0.333971
vt 0.058838 0.257731
vt 0.042586 0.260277
vt 0.074411 0.263028
vt 0.085739 0.274954
vn 0.5681 -0.0000 0.8230
vn 0.1205 -0.0000 0.9927
vn 0.8855 0.0000 -0.4647
vn 1.0000 0.0000 0.0000
vn 0.0000 1.0000 0.0000
vn 0.5681 0.0000 -0.8230
vn 0.1205 0.0000 -0.9927
vn -0.3546 0.0000 -0.9350
vn 0.8855 -0.0000 0.4647
vn -0.7485 0.0000 -0.6631
vn -0.9709 0.0000 -0.2393
vn -0.9709 0.0000 0.2393
vn -0.7485 -0.0000 0.6631
vn -0.3546 -0.0000 0.9350
vn 0.2059 0.0129 -0.9785
vn 0.2204 -0.3992 -0.8900
vn 0.0065 -0.4256 -0.9049
vn -0.6277 0.7630 -0.1545
vn -0.5500 0.6219 -0.5575
vn -0.5778 0.5848 -0.5694
vn -1.0000 0.0000 0.0000
vn -0.2748 0.0010 0.9615
vn 0.0000 -1.0000 -0.0000
vn 0.0000 -0.0000 1.0000
vn 0.0000 0.0000 -1.0000
vn 0.7071 0.7071 0.0000
vn -0.7071 0.7071 0.0000
vn 0.0000 -0.2058 0.9786
vn -0.2041 0.0103 -0.9789
vn -0.2182 -0.4017 -0.8894
vn -0.1468 -0.7884 -0.5974
vn -0.5489 -0.3310 -0.7675
vn 0.5540 -0.3237 -0.7670
vn 0.2006 -0.7488 -0.6317
vn 0.0000 -0.0715 -0.9974
vn 0.1716 -0.1260 0.9771
vn 0.1775 -0.4837 0.8570
vn 0.1639 -0.7777 0.6069
vn 0.4640 -0.4432 0.7670
vn 0.0216 0.0290 0.9993
vn 0.0064 -0.4932 0.8699
vn -0.4717 -0.4357 0.7666
vn -0.1239 -0.8077 0.5765
vn -0.1805 -0.4813 0.8578
vn -0.1743 -0.1233 0.9769
vn -0.4072 0.2838 -0.8681
vn -0.0064 -0.4932 0.8699
vn -0.0213 0.1671 -0.9857
vn -0.0065 -0.4255 -0.9049
vn 0.6277 0.7630 -0.1545
vn 0.6715 0.7410 0.0000
vn 0.5783 0.5815 -0.5722
vn 0.2840 -0.0188 0.9586
vn -0.0216 0.0290 0.9993
vn 0.0213 0.1671 -0.9857
vn -0.3132 0.1306 -0.9407
vn 0.3089 0.1127 -0.9444
vn 0.4058 0.2751 -0.8716
vn -0.6715 0.7410 0.0000
vn 0.0000 -0.8795 0.4758
vn 0.0000 -0.8723 -0.4889
vn 0.5500 0.6219 -0.5575
usemtl default
s 1
f 1/1/1 2/2/1 3/3/2 4/4/2
f 5/5/3 6/6/3 7/7/4 8/8/4
f 6/9/5 9/10/5 10/11/5 7/12/5
f 11/13/6 9/14/6 6/15/3 5/16/3
f 2/17/5 12/18/5 10/11/5 3/19/5
f 13/20/7 14/21/7 9/14/6 11/13/6
f 14/22/5 15/23/5 10/11/5 9/10/5
f 16/24/8 15/25/8 14/21/7 13/20/7
f 17/26/9 12/27/9 2/2/1 1/1/1
f 18/28/10 19/29/10 15/25/8 16/24/8
f 19/30/5 20/31/5 10/11/5 15/23/5
f 21/32/11 20/33/11 19/29/10 18/28/10
f 8/8/4 7/7/4 12/27/9 17/26/9
f 22/34/12 23/35/12 20/33/11 21/32/11
f 23/36/5 24/37/5 10/11/5 20/31/5
f 25/38/13 24/39/13 23/35/12 22/34/12
f 7/12/5 10/11/5 12/18/5
f 26/40/14 27/41/14 24/39/13 25/38/13
f 27/42/5 3/19/5 10/11/5 24/37/5
f 4/4/2 3/3/2 27/41/14 26/40/14
f 28/43/15 29/44/16 30/45/17
f 31/46/4 32/47/4 33/48/4 34/49/4
f 35/50/18 36/51/19 37/52/20
f 38/53/21 39/54/21 40/55/21 41/56/21
f 42/57/22 43/58/22 44/59/22 45/60/22
f 31/61/23 34/62/23 38/63/23 41/64/23
f 34/65/24 33/66/24 39/67/24 38/68/24
f 32/69/25 31/70/25 41/71/25 40/72/25
f 32/73/26 28/74/26 46/75/26 33/76/26
f 47/77/27 40/78/27 39/79/27 48/80/27
f 40/81/28 49/82/28 50/83/28 32/84/28
f 47/85/29 51/86/30 49/87/31 40/88/32
f 46/75/5 28/74/5 52/89/5 53/90/5
f 32/91/33 50/92/34 29/93/16 28/94/15
f 33/95/35 54/96/35 55/97/35 39/98/35
f 46/99/36 56/100/37 54/101/38 33/102/39
f 53/103/40 57/104/41 46/105/36
f 39/106/42 55/107/43 58/108/44 48/109/45
f 37/110/20 36/111/19 59/112/46
f 54/101/38 56/100/37 57/113/41
f 57/114/41 56/115/37 46/116/36
f 42/117/47 48/118/45 58/119/44
f 47/120/29 37/121/48 60/122/49
f 35/50/50 44/123/51 53/90/51 52/89/52
f 53/103/53 44/59/53 43/58/53 57/104/53
f 42/57/47 45/60/54 48/124/45
f 30/45/17 52/125/55 28/43/15
f 60/122/49 51/126/30 47/120/29
f 59/127/46 61/128/56 60/122/56 37/121/20
f 52/125/52 30/45/57 61/128/57 59/127/58
f 37/52/20 45/129/59 44/123/59 35/50/18
f 55/107/43 43/130/60 42/131/47
f 58/108/44 55/107/43 42/131/47
f 30/45/17 29/44/16 50/132/34
f 49/133/31 61/128/61 30/45/17 50/132/34
f 49/133/31 51/126/30 60/122/49
f 48/80/5 25/134/5 22/135/5
f 48/80/5 22/135/5 21/136/5 47/77/5
f 5/137/5 8/138/5 45/129/5 37/52/5
f 13/139/5 11/140/5 5/137/5 37/52/5
f 21/136/5 18/141/5 16/142/5 47/77/5
f 59/112/58 36/111/62 52/143/52
f 4/144/5 26/145/5 25/134/5 48/80/5
f 48/80/5 45/129/5 1/146/5 4/144/5
f 37/52/5 47/77/5 16/142/5 13/139/5
f 36/51/62 35/50/50 52/89/52
f 1/146/5 45/129/5 8/138/5 17/147/5
f 49/133/31 60/122/49 61/128/61
f 55/107/43 54/101/38 57/113/41 43/130/60
