# Blender v3.0.0 OBJ File: ''
# www.blender.org
mtllib nudle.mtl
o Cube
v 1.000000 2.512386 -1.290101
v 1.000000 -1.000000 -1.290101
v 1.000000 2.512386 1.000000
v 1.000000 -1.000000 1.000000
v -0.343346 2.512386 -1.290101
v -0.343346 -1.000000 -1.290101
v -0.343346 2.512386 1.000000
v -0.343346 -1.000000 1.000000
vt 0.840041 0.969716
vt 0.840041 0.969716
vt 0.056570 0.969716
vt 0.056570 0.969716
vt 0.056570 0.018712
vt 0.056570 0.018712
vt 0.840041 0.018712
vt 0.840041 0.018712
vn 0.0000 1.0000 0.0000
vn 0.0000 0.0000 1.0000
vn -1.0000 0.0000 0.0000
vn 0.0000 -1.0000 0.0000
vn 1.0000 0.0000 0.0000
vn 0.0000 0.0000 -1.0000
usemtl Material
s off
f 1/1/1 5/2/1 7/3/1 3/4/1
f 4/5/2 3/4/2 7/3/2 8/6/2
f 8/6/3 7/3/3 5/2/3 6/7/3
f 6/7/4 2/8/4 4/5/4 8/6/4
f 2/8/5 1/1/5 3/4/5 4/5/5
f 6/7/6 5/2/6 1/1/6 2/8/6
